%TF.GenerationSoftware,KiCad,Pcbnew,8.0.0*%
%TF.CreationDate,2024-07-08T18:04:10+10:00*%
%TF.ProjectId,Ardi,41726469-2e6b-4696-9361-645f70636258,A*%
%TF.SameCoordinates,Original*%
%TF.FileFunction,Copper,L1,Top*%
%TF.FilePolarity,Positive*%
%FSLAX46Y46*%
G04 Gerber Fmt 4.6, Leading zero omitted, Abs format (unit mm)*
G04 Created by KiCad (PCBNEW 8.0.0) date 2024-07-08 18:04:10*
%MOMM*%
%LPD*%
G01*
G04 APERTURE LIST*
%TA.AperFunction,ComponentPad*%
%ADD10R,1.600000X1.600000*%
%TD*%
%TA.AperFunction,ComponentPad*%
%ADD11O,1.600000X1.600000*%
%TD*%
%TA.AperFunction,ComponentPad*%
%ADD12C,1.600000*%
%TD*%
%TA.AperFunction,Conductor*%
%ADD13C,0.300000*%
%TD*%
G04 APERTURE END LIST*
D10*
%TO.P,A1,1,D1/TX*%
%TO.N,unconnected-(A1-D1{slash}TX-Pad1)*%
X127000000Y-105450000D03*
D11*
%TO.P,A1,2,D0/RX*%
%TO.N,unconnected-(A1-D0{slash}RX-Pad2)*%
X127000000Y-107990000D03*
%TO.P,A1,3,~{RESET}*%
%TO.N,unconnected-(A1-~{RESET}-Pad3)*%
X127000000Y-110530000D03*
%TO.P,A1,4,GND*%
%TO.N,GND*%
X127000000Y-113070000D03*
%TO.P,A1,5,D2*%
%TO.N,unconnected-(A1-D2-Pad5)*%
X127000000Y-115610000D03*
%TO.P,A1,6,D3*%
%TO.N,Net-(A1-D3)*%
X127000000Y-118150000D03*
%TO.P,A1,7,D4*%
%TO.N,unconnected-(A1-D4-Pad7)*%
X127000000Y-120690000D03*
%TO.P,A1,8,D5*%
%TO.N,unconnected-(A1-D5-Pad8)*%
X127000000Y-123230000D03*
%TO.P,A1,9,D6*%
%TO.N,unconnected-(A1-D6-Pad9)*%
X127000000Y-125770000D03*
%TO.P,A1,10,D7*%
%TO.N,unconnected-(A1-D7-Pad10)*%
X127000000Y-128310000D03*
%TO.P,A1,11,D8*%
%TO.N,unconnected-(A1-D8-Pad11)*%
X127000000Y-130850000D03*
%TO.P,A1,12,D9*%
%TO.N,unconnected-(A1-D9-Pad12)*%
X127000000Y-133390000D03*
%TO.P,A1,13,D10*%
%TO.N,unconnected-(A1-D10-Pad13)*%
X127000000Y-135930000D03*
%TO.P,A1,14,D11*%
%TO.N,Net-(A1-D11)*%
X127000000Y-138470000D03*
%TO.P,A1,15,D12*%
%TO.N,unconnected-(A1-D12-Pad15)*%
X127000000Y-141010000D03*
%TO.P,A1,16,D13*%
%TO.N,unconnected-(A1-D13-Pad16)*%
X142240000Y-141010000D03*
%TO.P,A1,17,3V3*%
%TO.N,unconnected-(A1-3V3-Pad17)*%
X142240000Y-138470000D03*
%TO.P,A1,18,AREF*%
%TO.N,unconnected-(A1-AREF-Pad18)*%
X142240000Y-135930000D03*
%TO.P,A1,19,A0*%
%TO.N,unconnected-(A1-A0-Pad19)*%
X142240000Y-133390000D03*
%TO.P,A1,20,A1*%
%TO.N,unconnected-(A1-A1-Pad20)*%
X142240000Y-130850000D03*
%TO.P,A1,21,A2*%
%TO.N,unconnected-(A1-A2-Pad21)*%
X142240000Y-128310000D03*
%TO.P,A1,22,A3*%
%TO.N,unconnected-(A1-A3-Pad22)*%
X142240000Y-125770000D03*
%TO.P,A1,23,A4*%
%TO.N,Net-(A1-A4)*%
X142240000Y-123230000D03*
%TO.P,A1,24,A5*%
%TO.N,Net-(A1-A5)*%
X142240000Y-120690000D03*
%TO.P,A1,25,A6*%
%TO.N,unconnected-(A1-A6-Pad25)*%
X142240000Y-118150000D03*
%TO.P,A1,26,A7*%
%TO.N,unconnected-(A1-A7-Pad26)*%
X142240000Y-115610000D03*
%TO.P,A1,27,+5V*%
%TO.N,+5V*%
X142240000Y-113070000D03*
%TO.P,A1,28,~{RESET}*%
%TO.N,unconnected-(A1-~{RESET}-Pad28)*%
X142240000Y-110530000D03*
%TO.P,A1,29,GND*%
%TO.N,unconnected-(A1-GND-Pad29)*%
X142240000Y-107990000D03*
%TO.P,A1,30,VIN*%
%TO.N,Net-(A1-VIN)*%
X142240000Y-105450000D03*
%TD*%
D12*
%TO.P,LS1,1,1*%
%TO.N,Net-(A1-D11)*%
X135000000Y-91250000D03*
%TO.P,LS1,2,2*%
%TO.N,Net-(A1-D3)*%
X135000000Y-84750000D03*
%TD*%
%TO.P,P1,1*%
%TO.N,Net-(A1-VIN)*%
X137500000Y-68000000D03*
%TO.P,P1,2*%
%TO.N,GND*%
X132500000Y-68000000D03*
%TD*%
D10*
%TO.P,U1,1,VCC*%
%TO.N,+5V*%
X139000000Y-73300000D03*
D12*
%TO.P,U1,2,GND*%
%TO.N,GND*%
X136460000Y-73300000D03*
%TO.P,U1,3,SCL*%
%TO.N,Net-(A1-A5)*%
X133920000Y-73300000D03*
%TO.P,U1,4,SDA*%
%TO.N,Net-(A1-A4)*%
X131380000Y-73300000D03*
%TD*%
D13*
%TO.N,+5V*%
X139000000Y-73300000D02*
X139000000Y-111930000D01*
%TO.N,Net-(A1-D3)*%
X133000000Y-86750000D02*
X135000000Y-84750000D01*
X127000000Y-118150000D02*
X130850000Y-118150000D01*
X130850000Y-118150000D02*
X133000000Y-116000000D01*
X133000000Y-116000000D02*
X133000000Y-86750000D01*
%TO.N,Net-(A1-D11)*%
X127000000Y-138470000D02*
X131530000Y-138470000D01*
X131530000Y-138470000D02*
X135000000Y-135000000D01*
X135000000Y-135000000D02*
X135000000Y-91250000D01*
%TO.N,GND*%
X133000000Y-70000000D02*
X136000000Y-70000000D01*
X132500000Y-68000000D02*
X132500000Y-69500000D01*
X128947500Y-113070000D02*
X127000000Y-113070000D01*
X132500000Y-69500000D02*
X133000000Y-70000000D01*
X136460000Y-75540000D02*
X131000000Y-81000000D01*
X136000000Y-70000000D02*
X136460000Y-70460000D01*
X136460000Y-73300000D02*
X136460000Y-75540000D01*
X136460000Y-70460000D02*
X136460000Y-73300000D01*
X131000000Y-111017500D02*
X128947500Y-113070000D01*
X131000000Y-81000000D02*
X131000000Y-111017500D01*
%TO.N,+5V*%
X139000000Y-111930000D02*
X140140000Y-113070000D01*
X140140000Y-113070000D02*
X142240000Y-113070000D01*
%TD*%
M02*
