%TF.GenerationSoftware,KiCad,Pcbnew,8.0.0*%
%TF.CreationDate,2024-07-08T18:04:10+10:00*%
%TF.ProjectId,Ardi,41726469-2e6b-4696-9361-645f70636258,A*%
%TF.SameCoordinates,Original*%
%TF.FileFunction,Legend,Bot*%
%TF.FilePolarity,Positive*%
%FSLAX46Y46*%
G04 Gerber Fmt 4.6, Leading zero omitted, Abs format (unit mm)*
G04 Created by KiCad (PCBNEW 8.0.0) date 2024-07-08 18:04:10*
%MOMM*%
%LPD*%
G01*
G04 APERTURE LIST*
%ADD10C,0.300000*%
%ADD11C,0.100000*%
%ADD12C,0.150000*%
G04 APERTURE END LIST*
D10*
X125372257Y-66483082D02*
X125372257Y-67197368D01*
X125800828Y-66340225D02*
X124300828Y-66840225D01*
X124300828Y-66840225D02*
X125800828Y-67340225D01*
X125800828Y-67840224D02*
X124800828Y-67840224D01*
X125086542Y-67840224D02*
X124943685Y-67911653D01*
X124943685Y-67911653D02*
X124872257Y-67983082D01*
X124872257Y-67983082D02*
X124800828Y-68125939D01*
X124800828Y-68125939D02*
X124800828Y-68268796D01*
X125800828Y-69411653D02*
X124300828Y-69411653D01*
X125729400Y-69411653D02*
X125800828Y-69268795D01*
X125800828Y-69268795D02*
X125800828Y-68983081D01*
X125800828Y-68983081D02*
X125729400Y-68840224D01*
X125729400Y-68840224D02*
X125657971Y-68768795D01*
X125657971Y-68768795D02*
X125515114Y-68697367D01*
X125515114Y-68697367D02*
X125086542Y-68697367D01*
X125086542Y-68697367D02*
X124943685Y-68768795D01*
X124943685Y-68768795D02*
X124872257Y-68840224D01*
X124872257Y-68840224D02*
X124800828Y-68983081D01*
X124800828Y-68983081D02*
X124800828Y-69268795D01*
X124800828Y-69268795D02*
X124872257Y-69411653D01*
X125800828Y-70125938D02*
X124800828Y-70125938D01*
X124300828Y-70125938D02*
X124372257Y-70054510D01*
X124372257Y-70054510D02*
X124443685Y-70125938D01*
X124443685Y-70125938D02*
X124372257Y-70197367D01*
X124372257Y-70197367D02*
X124300828Y-70125938D01*
X124300828Y-70125938D02*
X124443685Y-70125938D01*
X124300828Y-71768796D02*
X125800828Y-72268796D01*
X125800828Y-72268796D02*
X124300828Y-72768796D01*
X125657971Y-73268795D02*
X125729400Y-73340224D01*
X125729400Y-73340224D02*
X125800828Y-73268795D01*
X125800828Y-73268795D02*
X125729400Y-73197367D01*
X125729400Y-73197367D02*
X125657971Y-73268795D01*
X125657971Y-73268795D02*
X125800828Y-73268795D01*
X125800828Y-74768796D02*
X125800828Y-73911653D01*
X125800828Y-74340224D02*
X124300828Y-74340224D01*
X124300828Y-74340224D02*
X124515114Y-74197367D01*
X124515114Y-74197367D02*
X124657971Y-74054510D01*
X124657971Y-74054510D02*
X124729400Y-73911653D01*
D11*
X143542580Y-72761904D02*
X142733057Y-72761904D01*
X142733057Y-72761904D02*
X142637819Y-72714285D01*
X142637819Y-72714285D02*
X142590200Y-72666666D01*
X142590200Y-72666666D02*
X142542580Y-72571428D01*
X142542580Y-72571428D02*
X142542580Y-72380952D01*
X142542580Y-72380952D02*
X142590200Y-72285714D01*
X142590200Y-72285714D02*
X142637819Y-72238095D01*
X142637819Y-72238095D02*
X142733057Y-72190476D01*
X142733057Y-72190476D02*
X143542580Y-72190476D01*
X142542580Y-71190476D02*
X142542580Y-71761904D01*
X142542580Y-71476190D02*
X143542580Y-71476190D01*
X143542580Y-71476190D02*
X143399723Y-71571428D01*
X143399723Y-71571428D02*
X143304485Y-71666666D01*
X143304485Y-71666666D02*
X143256866Y-71761904D01*
D12*
X129224180Y-87695220D02*
X130224180Y-87695220D01*
X130224180Y-87695220D02*
X130224180Y-87457125D01*
X130224180Y-87457125D02*
X130176561Y-87314268D01*
X130176561Y-87314268D02*
X130081323Y-87219030D01*
X130081323Y-87219030D02*
X129986085Y-87171411D01*
X129986085Y-87171411D02*
X129795609Y-87123792D01*
X129795609Y-87123792D02*
X129652752Y-87123792D01*
X129652752Y-87123792D02*
X129462276Y-87171411D01*
X129462276Y-87171411D02*
X129367038Y-87219030D01*
X129367038Y-87219030D02*
X129271800Y-87314268D01*
X129271800Y-87314268D02*
X129224180Y-87457125D01*
X129224180Y-87457125D02*
X129224180Y-87695220D01*
X129747990Y-86361887D02*
X129747990Y-86695220D01*
X129224180Y-86695220D02*
X130224180Y-86695220D01*
X130224180Y-86695220D02*
X130224180Y-86219030D01*
X129224180Y-85266649D02*
X129700371Y-85599982D01*
X129224180Y-85838077D02*
X130224180Y-85838077D01*
X130224180Y-85838077D02*
X130224180Y-85457125D01*
X130224180Y-85457125D02*
X130176561Y-85361887D01*
X130176561Y-85361887D02*
X130128942Y-85314268D01*
X130128942Y-85314268D02*
X130033704Y-85266649D01*
X130033704Y-85266649D02*
X129890847Y-85266649D01*
X129890847Y-85266649D02*
X129795609Y-85314268D01*
X129795609Y-85314268D02*
X129747990Y-85361887D01*
X129747990Y-85361887D02*
X129700371Y-85457125D01*
X129700371Y-85457125D02*
X129700371Y-85838077D01*
X130224180Y-84647601D02*
X130224180Y-84457125D01*
X130224180Y-84457125D02*
X130176561Y-84361887D01*
X130176561Y-84361887D02*
X130081323Y-84266649D01*
X130081323Y-84266649D02*
X129890847Y-84219030D01*
X129890847Y-84219030D02*
X129557514Y-84219030D01*
X129557514Y-84219030D02*
X129367038Y-84266649D01*
X129367038Y-84266649D02*
X129271800Y-84361887D01*
X129271800Y-84361887D02*
X129224180Y-84457125D01*
X129224180Y-84457125D02*
X129224180Y-84647601D01*
X129224180Y-84647601D02*
X129271800Y-84742839D01*
X129271800Y-84742839D02*
X129367038Y-84838077D01*
X129367038Y-84838077D02*
X129557514Y-84885696D01*
X129557514Y-84885696D02*
X129890847Y-84885696D01*
X129890847Y-84885696D02*
X130081323Y-84838077D01*
X130081323Y-84838077D02*
X130176561Y-84742839D01*
X130176561Y-84742839D02*
X130224180Y-84647601D01*
X129747990Y-83457125D02*
X129700371Y-83314268D01*
X129700371Y-83314268D02*
X129652752Y-83266649D01*
X129652752Y-83266649D02*
X129557514Y-83219030D01*
X129557514Y-83219030D02*
X129414657Y-83219030D01*
X129414657Y-83219030D02*
X129319419Y-83266649D01*
X129319419Y-83266649D02*
X129271800Y-83314268D01*
X129271800Y-83314268D02*
X129224180Y-83409506D01*
X129224180Y-83409506D02*
X129224180Y-83790458D01*
X129224180Y-83790458D02*
X130224180Y-83790458D01*
X130224180Y-83790458D02*
X130224180Y-83457125D01*
X130224180Y-83457125D02*
X130176561Y-83361887D01*
X130176561Y-83361887D02*
X130128942Y-83314268D01*
X130128942Y-83314268D02*
X130033704Y-83266649D01*
X130033704Y-83266649D02*
X129938466Y-83266649D01*
X129938466Y-83266649D02*
X129843228Y-83314268D01*
X129843228Y-83314268D02*
X129795609Y-83361887D01*
X129795609Y-83361887D02*
X129747990Y-83457125D01*
X129747990Y-83457125D02*
X129747990Y-83790458D01*
X130224180Y-82599982D02*
X130224180Y-82409506D01*
X130224180Y-82409506D02*
X130176561Y-82314268D01*
X130176561Y-82314268D02*
X130081323Y-82219030D01*
X130081323Y-82219030D02*
X129890847Y-82171411D01*
X129890847Y-82171411D02*
X129557514Y-82171411D01*
X129557514Y-82171411D02*
X129367038Y-82219030D01*
X129367038Y-82219030D02*
X129271800Y-82314268D01*
X129271800Y-82314268D02*
X129224180Y-82409506D01*
X129224180Y-82409506D02*
X129224180Y-82599982D01*
X129224180Y-82599982D02*
X129271800Y-82695220D01*
X129271800Y-82695220D02*
X129367038Y-82790458D01*
X129367038Y-82790458D02*
X129557514Y-82838077D01*
X129557514Y-82838077D02*
X129890847Y-82838077D01*
X129890847Y-82838077D02*
X130081323Y-82790458D01*
X130081323Y-82790458D02*
X130176561Y-82695220D01*
X130176561Y-82695220D02*
X130224180Y-82599982D01*
X130224180Y-81885696D02*
X130224180Y-81314268D01*
X129224180Y-81599982D02*
X130224180Y-81599982D01*
X129128942Y-81219030D02*
X129128942Y-80457125D01*
X129747990Y-79885696D02*
X129700371Y-79742839D01*
X129700371Y-79742839D02*
X129652752Y-79695220D01*
X129652752Y-79695220D02*
X129557514Y-79647601D01*
X129557514Y-79647601D02*
X129414657Y-79647601D01*
X129414657Y-79647601D02*
X129319419Y-79695220D01*
X129319419Y-79695220D02*
X129271800Y-79742839D01*
X129271800Y-79742839D02*
X129224180Y-79838077D01*
X129224180Y-79838077D02*
X129224180Y-80219029D01*
X129224180Y-80219029D02*
X130224180Y-80219029D01*
X130224180Y-80219029D02*
X130224180Y-79885696D01*
X130224180Y-79885696D02*
X130176561Y-79790458D01*
X130176561Y-79790458D02*
X130128942Y-79742839D01*
X130128942Y-79742839D02*
X130033704Y-79695220D01*
X130033704Y-79695220D02*
X129938466Y-79695220D01*
X129938466Y-79695220D02*
X129843228Y-79742839D01*
X129843228Y-79742839D02*
X129795609Y-79790458D01*
X129795609Y-79790458D02*
X129747990Y-79885696D01*
X129747990Y-79885696D02*
X129747990Y-80219029D01*
X129224180Y-79219029D02*
X130224180Y-79219029D01*
X130224180Y-79219029D02*
X129509895Y-78885696D01*
X129509895Y-78885696D02*
X130224180Y-78552363D01*
X130224180Y-78552363D02*
X129224180Y-78552363D01*
X129224180Y-78076172D02*
X130224180Y-78076172D01*
X130224180Y-78076172D02*
X130224180Y-77695220D01*
X130224180Y-77695220D02*
X130176561Y-77599982D01*
X130176561Y-77599982D02*
X130128942Y-77552363D01*
X130128942Y-77552363D02*
X130033704Y-77504744D01*
X130033704Y-77504744D02*
X129890847Y-77504744D01*
X129890847Y-77504744D02*
X129795609Y-77552363D01*
X129795609Y-77552363D02*
X129747990Y-77599982D01*
X129747990Y-77599982D02*
X129700371Y-77695220D01*
X129700371Y-77695220D02*
X129700371Y-78076172D01*
X130128942Y-77123791D02*
X130176561Y-77076172D01*
X130176561Y-77076172D02*
X130224180Y-76980934D01*
X130224180Y-76980934D02*
X130224180Y-76742839D01*
X130224180Y-76742839D02*
X130176561Y-76647601D01*
X130176561Y-76647601D02*
X130128942Y-76599982D01*
X130128942Y-76599982D02*
X130033704Y-76552363D01*
X130033704Y-76552363D02*
X129938466Y-76552363D01*
X129938466Y-76552363D02*
X129795609Y-76599982D01*
X129795609Y-76599982D02*
X129224180Y-77171410D01*
X129224180Y-77171410D02*
X129224180Y-76552363D01*
X129795609Y-75980934D02*
X129843228Y-76076172D01*
X129843228Y-76076172D02*
X129890847Y-76123791D01*
X129890847Y-76123791D02*
X129986085Y-76171410D01*
X129986085Y-76171410D02*
X130033704Y-76171410D01*
X130033704Y-76171410D02*
X130128942Y-76123791D01*
X130128942Y-76123791D02*
X130176561Y-76076172D01*
X130176561Y-76076172D02*
X130224180Y-75980934D01*
X130224180Y-75980934D02*
X130224180Y-75790458D01*
X130224180Y-75790458D02*
X130176561Y-75695220D01*
X130176561Y-75695220D02*
X130128942Y-75647601D01*
X130128942Y-75647601D02*
X130033704Y-75599982D01*
X130033704Y-75599982D02*
X129986085Y-75599982D01*
X129986085Y-75599982D02*
X129890847Y-75647601D01*
X129890847Y-75647601D02*
X129843228Y-75695220D01*
X129843228Y-75695220D02*
X129795609Y-75790458D01*
X129795609Y-75790458D02*
X129795609Y-75980934D01*
X129795609Y-75980934D02*
X129747990Y-76076172D01*
X129747990Y-76076172D02*
X129700371Y-76123791D01*
X129700371Y-76123791D02*
X129605133Y-76171410D01*
X129605133Y-76171410D02*
X129414657Y-76171410D01*
X129414657Y-76171410D02*
X129319419Y-76123791D01*
X129319419Y-76123791D02*
X129271800Y-76076172D01*
X129271800Y-76076172D02*
X129224180Y-75980934D01*
X129224180Y-75980934D02*
X129224180Y-75790458D01*
X129224180Y-75790458D02*
X129271800Y-75695220D01*
X129271800Y-75695220D02*
X129319419Y-75647601D01*
X129319419Y-75647601D02*
X129414657Y-75599982D01*
X129414657Y-75599982D02*
X129605133Y-75599982D01*
X129605133Y-75599982D02*
X129700371Y-75647601D01*
X129700371Y-75647601D02*
X129747990Y-75695220D01*
X129747990Y-75695220D02*
X129795609Y-75790458D01*
X130224180Y-74980934D02*
X130224180Y-74885696D01*
X130224180Y-74885696D02*
X130176561Y-74790458D01*
X130176561Y-74790458D02*
X130128942Y-74742839D01*
X130128942Y-74742839D02*
X130033704Y-74695220D01*
X130033704Y-74695220D02*
X129843228Y-74647601D01*
X129843228Y-74647601D02*
X129605133Y-74647601D01*
X129605133Y-74647601D02*
X129414657Y-74695220D01*
X129414657Y-74695220D02*
X129319419Y-74742839D01*
X129319419Y-74742839D02*
X129271800Y-74790458D01*
X129271800Y-74790458D02*
X129224180Y-74885696D01*
X129224180Y-74885696D02*
X129224180Y-74980934D01*
X129224180Y-74980934D02*
X129271800Y-75076172D01*
X129271800Y-75076172D02*
X129319419Y-75123791D01*
X129319419Y-75123791D02*
X129414657Y-75171410D01*
X129414657Y-75171410D02*
X129605133Y-75219029D01*
X129605133Y-75219029D02*
X129843228Y-75219029D01*
X129843228Y-75219029D02*
X130033704Y-75171410D01*
X130033704Y-75171410D02*
X130128942Y-75123791D01*
X130128942Y-75123791D02*
X130176561Y-75076172D01*
X130176561Y-75076172D02*
X130224180Y-74980934D01*
%TO.C,U1*%
D11*
X128840000Y-71268000D02*
X141540000Y-71268000D01*
X141540000Y-88032000D01*
X128840000Y-88032000D01*
X128840000Y-71268000D01*
%TD*%
M02*
